<svg xmlns="http://www.w3.org/2000/svg" width="128" height="128" viewBox="0 0 128 128">
  <!-- Matches HTML header brand mark: rounded-lg sky-600 + white layers icon -->
  <rect width="128" height="128" rx="28" ry="28" fill="#0284c7"/>
  <g
    fill="none"
    stroke="#ffffff"
    stroke-width="2"
    stroke-linecap="round"
    stroke-linejoin="round"
    transform="translate(64 64) scale(3.5) translate(-12 -12)"
  >
    <path d="M12.83 2.18a2 2 0 0 0-1.66 0L2.6 6.08a1 1 0 0 0 0 1.83l8.58 3.91a2 2 0 0 0 1.66 0l8.58-3.9a1 1 0 0 0 0-1.83z" />
    <path d="M2 12a1 1 0 0 0 .58.91l8.6 3.91a2 2 0 0 0 1.65 0l8.58-3.9A1 1 0 0 0 22 12" />
    <path d="M2 17a1 1 0 0 0 .58.91l8.6 3.91a2 2 0 0 0 1.65 0l8.58-3.9A1 1 0 0 0 22 17" />
  </g>
</svg>
